<?xml version="1.0" encoding="utf-8"?>
<!-- Generator: Adobe Illustrator 25.2.1, SVG Export Plug-In . SVG Version: 6.00 Build 0)  -->
<svg version="1.1" id="Layer_1" xmlns="http://www.w3.org/2000/svg" xmlns:xlink="http://www.w3.org/1999/xlink" x="0px" y="0px"
	 viewBox="0 0 500 425.6" style="enable-background:new 0 0 500 425.6;" xml:space="preserve">
<style type="text/css">
	.st0{fill:#FFFFFF;}
	.st1{fill:#083088;}
</style>
<g>
	<path class="st0" d="M480,86.6c-5.7-4.4-12.3-5.9-19.3-5.9c-140.3,0-280.6,0-420.9,0c-1.4,0-2.8,0.1-4.1,0.2
		C20.3,82.1,8.5,94.7,8.5,110.1c0,69.5,0,139.1,0,208.6c0,3,0.4,5.9,1.3,8.8c3.9,12.4,15.3,20.7,28.3,20.7c44.2,0,88.4,0,132.6,0
		c2.5,0,4.4,0.7,6.3,2.3c21.5,19.2,43.1,38.3,64.7,57.4c1,0.9,2,1.8,3.5,3.1c0-1.3,0-2.1,0-2.9c0-17.8,0-35.5,0-53.2
		c0-0.6,0-1.3,0-2c0.2-2.6,2-4.5,4.6-4.7c0.8-0.1,1.6,0,2.4,0c69.9,0,139.9,0,209.8,0c16.6,0,29.8-13,29.8-29.5
		c0-69.5,0-139.1,0-208.6C491.9,100.3,487.7,92.5,480,86.6z"/>
	<path class="st1" d="M499.5,179.4c0-22.2,0-44.4,0-66.6c0-2.4-0.1-4.7-0.4-7.1c-2.5-17.4-16.7-31.1-34.1-33.1c-0.4,0-1,0.2-1.3-0.4
		c-141.8,0-283.6,0-425.5,0c-0.3,0.5-0.7,0.3-1.1,0.4c-7,0.5-13.5,2.7-19.2,6.8C6.6,87.4,1,98.4,1,112.2c0,60,0,120.1,0,180.1
		c0,8.5-0.1,16.9,0,25.4c0.3,15.7,7.4,27.4,21.1,35c6,3.3,12.5,4.5,19.3,4.4c42.6,0,85.2,0,127.9,0c1.5,0,2.7,0.4,3.8,1.5
		c24.1,21.4,48.2,42.8,72.3,64.1c0.6,0.5,1.2,1.1,1.8,1.5c1.5,1.2,3.3,1.4,5.1,0.7c1.8-0.8,2.7-2.2,3-4.2c0.1-0.7,0-1.4,0-2.1
		c0-19.8,0-39.6,0-59.4c0-2.3-0.2-2.1,2.1-2.1c0.2,0,0.4,0,0.6,0c46.4,0,92.8,0,139.3,0c0.8,0,1.6,0.1,2.4,0.1
		c3.3-0.2,6.6-0.2,9.9,0c0.9,0,1.7-0.1,2.6-0.1c15.9,0,31.8,0.1,47.8,0c14.5-0.1,25.8-6.3,33.7-18.4c3.8-5.9,5.8-12.4,5.9-19.5
		c0-1.1,0-2.2,0-3.2c0-40.4,0-80.9,0-121.3c0-0.9,0-1.7,0-2.6c0-3.4,0-6.7,0-10.1C499.5,181.1,499.5,180.3,499.5,179.4z M460,347.2
		c-69.3,0-138.5,0-207.8,0c-0.8,0-1.6,0-2.4,0c-2.5,0.2-4.4,2.1-4.5,4.6c0,0.6,0,1.3,0,1.9c0,17.6,0,35.1,0,52.7c0,0.8,0,1.5,0,2.9
		c-1.4-1.3-2.4-2.2-3.4-3c-21.4-18.9-42.7-37.9-64.1-56.9c-1.9-1.6-3.7-2.3-6.2-2.3c-43.8,0.1-87.6,0-131.3,0
		c-12.9,0-24.1-8.2-28-20.5c-0.9-2.8-1.3-5.7-1.3-8.7c0-68.9,0-137.7,0-206.6c0-15.2,11.6-27.7,26.8-29c1.4-0.1,2.7-0.2,4.1-0.2
		c138.9,0,277.9,0,416.8,0c7,0,13.5,1.6,19.2,5.9c7.6,5.9,11.8,13.6,11.8,23.3c0,68.9,0,137.7,0,206.6
		C489.5,334.3,476.5,347.2,460,347.2z"/>
</g>
</svg>
