<?xml version="1.0" encoding="utf-8"?>
<!-- Generator: Adobe Illustrator 25.2.3, SVG Export Plug-In . SVG Version: 6.00 Build 0)  -->
<svg version="1.1" id="Layer_1" xmlns="http://www.w3.org/2000/svg" xmlns:xlink="http://www.w3.org/1999/xlink" x="0px" y="0px"
	 viewBox="0 0 259.18 72.92" style="enable-background:new 0 0 259.18 72.92;" xml:space="preserve">
<style type="text/css">
	.st0{fill:#003087;}
	.st1{fill:#00B3E3;}
	.st2{fill:#FFFFFF;}
</style>
<polygon class="st0" points="88.07,30.04 85.12,30.04 85.12,27.95 93.56,27.95 93.56,30.04 90.56,30.04 90.56,38.95 88.07,38.95 "/>
<polygon class="st0" points="101.71,34.3 97.67,34.3 97.67,36.91 102.19,36.91 102.19,38.95 95.17,38.95 95.17,27.95 101.96,27.95 
	101.96,29.99 97.67,29.99 97.67,32.28 101.71,32.28 "/>
<path class="st0" d="M110.16,38.95l-1-1.99c-0.41-0.77-0.67-1.34-0.98-1.97h-0.03c-0.23,0.64-0.51,1.21-0.85,1.97l-0.91,1.99h-2.84
	l3.18-5.56l-3.07-5.43h2.85l0.96,2.01c0.33,0.67,0.57,1.21,0.83,1.83h0.03c0.26-0.7,0.47-1.19,0.75-1.83l0.93-2.01h2.84l-3.1,5.37
	l3.26,5.63H110.16z"/>
<path class="st0" d="M120.36,34.27l-0.69-2.33c-0.2-0.65-0.39-1.47-0.55-2.12h-0.03c-0.16,0.65-0.33,1.48-0.51,2.12l-0.65,2.33
	H120.36z M117.57,36.13l-0.78,2.82h-2.58l3.36-11h3.26l3.41,11h-2.68l-0.85-2.82H117.57z"/>
<path class="st0" d="M126.17,36.39c0.67,0.34,1.7,0.69,2.76,0.69c1.14,0,1.75-0.47,1.75-1.19c0-0.69-0.52-1.08-1.84-1.55
	c-1.83-0.64-3.02-1.65-3.02-3.25c0-1.88,1.57-3.31,4.16-3.31c1.24,0,2.15,0.26,2.81,0.56l-0.56,2.01c-0.44-0.21-1.22-0.52-2.3-0.52
	c-1.08,0-1.6,0.49-1.6,1.06c0,0.7,0.62,1.01,2.04,1.55c1.94,0.72,2.85,1.73,2.85,3.28c0,1.84-1.42,3.41-4.44,3.41
	c-1.26,0-2.5-0.33-3.12-0.67L126.17,36.39z"/>
<polygon class="st0" points="141.71,30.04 138.76,30.04 138.76,27.95 147.21,27.95 147.21,30.04 144.21,30.04 144.21,38.95 
	141.71,38.95 "/>
<path class="st0" d="M153.34,34.27l-0.68-2.33c-0.2-0.65-0.39-1.47-0.56-2.12h-0.03c-0.16,0.65-0.33,1.48-0.51,2.12l-0.65,2.33
	H153.34z M150.55,36.13l-0.78,2.82h-2.58l3.36-11h3.26l3.41,11h-2.68l-0.85-2.82H150.55z"/>
<path class="st0" d="M161.08,32.83h0.98c1.24,0,1.97-0.62,1.97-1.58c0-1.01-0.69-1.52-1.83-1.53c-0.6,0-0.95,0.05-1.13,0.08V32.83z
	 M158.61,28.1c0.8-0.13,1.99-0.23,3.31-0.23c1.63,0,2.77,0.25,3.56,0.87c0.65,0.52,1.01,1.29,1.01,2.3c0,1.4-1,2.37-1.94,2.71v0.05
	c0.77,0.31,1.19,1.05,1.47,2.06c0.34,1.24,0.69,2.68,0.9,3.1h-2.55c-0.18-0.31-0.44-1.21-0.77-2.56c-0.29-1.37-0.77-1.75-1.78-1.76
	h-0.75v4.32h-2.46V28.1z"/>
<path class="st0" d="M177.47,38.44c-0.77,0.26-2.22,0.62-3.67,0.62c-2.01,0-3.46-0.51-4.47-1.48c-1.01-0.95-1.57-2.38-1.55-4
	c0.02-3.65,2.68-5.74,6.28-5.74c1.42,0,2.51,0.28,3.05,0.54l-0.52,1.99c-0.6-0.26-1.35-0.47-2.56-0.47c-2.07,0-3.64,1.17-3.64,3.56
	c0,2.27,1.42,3.61,3.46,3.61c0.57,0,1.03-0.07,1.22-0.16v-2.3h-1.7v-1.94h4.09V38.44z"/>
<polygon class="st0" points="185.79,34.3 181.75,34.3 181.75,36.91 186.27,36.91 186.27,38.95 179.25,38.95 179.25,27.95 
	186.04,27.95 186.04,29.99 181.75,29.99 181.75,32.28 185.79,32.28 "/>
<polygon class="st0" points="190.78,30.04 187.83,30.04 187.83,27.95 196.27,27.95 196.27,30.04 193.27,30.04 193.27,38.95 
	190.78,38.95 "/>
<polygon class="st0" points="204.42,34.3 200.38,34.3 200.38,36.91 204.9,36.91 204.9,38.95 197.88,38.95 197.88,27.95 
	204.67,27.95 204.67,29.99 200.38,29.99 200.38,32.28 204.42,32.28 "/>
<path class="st0" d="M209.26,37.07c0.21,0.05,0.55,0.05,0.86,0.05c2.25,0.02,3.72-1.22,3.72-3.85c0.02-2.28-1.32-3.49-3.46-3.49
	c-0.56,0-0.91,0.05-1.13,0.1V37.07z M206.76,28.1c0.91-0.15,2.1-0.23,3.36-0.23c2.09,0,3.44,0.38,4.5,1.18
	c1.14,0.85,1.86,2.2,1.86,4.14c0,2.1-0.77,3.56-1.83,4.45c-1.16,0.96-2.92,1.42-5.07,1.42c-1.29,0-2.2-0.08-2.82-0.16V28.1z"/>
<path class="st0" d="M88.83,53.84c0,3.07,1.44,5.24,3.81,5.24c2.4,0,3.77-2.28,3.77-5.33c0-2.81-1.35-5.24-3.79-5.24
	C90.22,48.51,88.83,50.79,88.83,53.84 M100.15,53.63c0,5.14-3.12,8.26-7.7,8.26c-4.65,0-7.37-3.51-7.37-7.98c0-4.7,3-8.21,7.63-8.21
	C97.53,45.7,100.15,49.3,100.15,53.63"/>
<path class="st0" d="M106.01,56.75c0,0.28,0.02,0.54,0.07,0.75c0.23,0.95,1.05,1.67,2.07,1.67c1.54,0,2.44-1.28,2.44-3.21
	c0-1.81-0.81-3.19-2.39-3.19c-1,0-1.88,0.75-2.12,1.79c-0.05,0.19-0.07,0.42-0.07,0.63V56.75z M102.47,54.07
	c0-1.49-0.05-2.77-0.09-3.81h3.07l0.16,1.58h0.04c0.84-1.21,2.14-1.84,3.79-1.84c2.49,0,4.72,2.17,4.72,5.8
	c0,4.14-2.63,6.09-5.17,6.09c-1.37,0-2.44-0.56-2.95-1.3h-0.04v5.65h-3.54V54.07z"/>
<path class="st0" d="M116.4,50.26h3.54v11.37h-3.54V50.26z M120.05,47.1c0,0.97-0.74,1.77-1.91,1.77c-1.12,0-1.86-0.79-1.84-1.77
	c-0.02-1.02,0.72-1.79,1.86-1.79C119.31,45.3,120.03,46.07,120.05,47.1"/>
<path class="st0" d="M125.78,55.93c0,1.95,0.81,3.42,2.32,3.42c1.37,0,2.26-1.37,2.26-3.42c0-1.7-0.65-3.42-2.26-3.42
	C126.41,52.51,125.78,54.26,125.78,55.93 M134.01,55.82c0,4.16-2.96,6.07-6,6.07c-3.32,0-5.88-2.19-5.88-5.86
	c0-3.68,2.42-6.03,6.07-6.03C131.68,50,134.01,52.4,134.01,55.82"/>
<path class="st0" d="M136.21,50.26h3.54v11.37h-3.54V50.26z M139.86,47.1c0,0.97-0.74,1.77-1.91,1.77c-1.12,0-1.86-0.79-1.84-1.77
	c-0.02-1.02,0.72-1.79,1.86-1.79C139.12,45.3,139.84,46.07,139.86,47.1"/>
<path class="st0" d="M150.08,55.07c0-0.19-0.02-0.44-0.04-0.63c-0.21-0.95-0.98-1.75-2.07-1.75c-1.6,0-2.44,1.44-2.44,3.23
	c0,1.93,0.95,3.14,2.42,3.14c1.02,0,1.83-0.7,2.04-1.7c0.07-0.25,0.09-0.51,0.09-0.81V55.07z M153.61,45.12v13.12
	c0,1.28,0.05,2.63,0.09,3.4h-3.14l-0.16-1.68h-0.05c-0.72,1.28-2.1,1.93-3.56,1.93c-2.7,0-4.86-2.3-4.86-5.84
	c-0.02-3.84,2.37-6.05,5.09-6.05c1.39,0,2.49,0.49,3,1.28h0.04v-6.16H153.61z"/>
<path class="st0" d="M164.8,52.91h1.4c1.77,0,2.81-0.88,2.81-2.26c0-1.44-0.98-2.16-2.61-2.19c-0.86,0-1.35,0.07-1.6,0.12V52.91z
	 M161.28,46.16c1.14-0.18,2.84-0.32,4.72-0.32c2.32,0,3.96,0.35,5.07,1.23c0.93,0.74,1.44,1.84,1.44,3.28c0,2-1.42,3.37-2.77,3.86
	v0.07c1.09,0.44,1.7,1.49,2.1,2.93c0.48,1.77,0.97,3.82,1.28,4.42h-3.63c-0.26-0.44-0.63-1.72-1.09-3.65
	c-0.42-1.95-1.09-2.49-2.54-2.51h-1.07v6.16h-3.51V46.16z"/>
<path class="st0" d="M181.86,54.65c0-0.86-0.37-2.3-2-2.3c-1.49,0-2.1,1.35-2.19,2.3H181.86z M177.69,57.07
	c0.12,1.46,1.56,2.17,3.21,2.17c1.21,0,2.19-0.16,3.14-0.46l0.46,2.39c-1.16,0.47-2.58,0.7-4.12,0.7c-3.86,0-6.07-2.23-6.07-5.79
	c0-2.88,1.79-6.07,5.75-6.07c3.68,0,5.07,2.86,5.07,5.68c0,0.6-0.07,1.14-0.11,1.39H177.69z"/>
<path class="st0" d="M187.24,58.54c0.65,0.4,2,0.86,3.05,0.86c1.07,0,1.51-0.38,1.51-0.95c0-0.58-0.35-0.86-1.68-1.3
	c-2.35-0.79-3.25-2.07-3.23-3.42c0-2.12,1.81-3.72,4.63-3.72c1.33,0,2.51,0.31,3.21,0.65l-0.63,2.44c-0.51-0.28-1.49-0.65-2.47-0.65
	c-0.86,0-1.35,0.35-1.35,0.93c0,0.54,0.44,0.82,1.84,1.31c2.16,0.74,3.07,1.84,3.09,3.51c0,2.12-1.67,3.67-4.93,3.67
	c-1.49,0-2.81-0.33-3.67-0.79L187.24,58.54z"/>
<path class="st0" d="M200.91,56.75c0,0.28,0.02,0.54,0.07,0.75c0.23,0.95,1.05,1.67,2.07,1.67c1.54,0,2.44-1.28,2.44-3.21
	c0-1.81-0.81-3.19-2.39-3.19c-1,0-1.88,0.75-2.12,1.79c-0.05,0.19-0.07,0.42-0.07,0.63V56.75z M197.37,54.07
	c0-1.49-0.05-2.77-0.09-3.81h3.07l0.16,1.58h0.05c0.84-1.21,2.14-1.84,3.79-1.84c2.49,0,4.72,2.17,4.72,5.8
	c0,4.14-2.63,6.09-5.17,6.09c-1.37,0-2.44-0.56-2.95-1.3h-0.05v5.65h-3.54V54.07z"/>
<path class="st0" d="M214.37,55.93c0,1.95,0.81,3.42,2.32,3.42c1.37,0,2.26-1.37,2.26-3.42c0-1.7-0.65-3.42-2.26-3.42
	C214.99,52.51,214.37,54.26,214.37,55.93 M222.6,55.82c0,4.16-2.95,6.07-6,6.07c-3.32,0-5.88-2.19-5.88-5.86
	c0-3.68,2.42-6.03,6.07-6.03C220.27,50,222.6,52.4,222.6,55.82"/>
<path class="st0" d="M224.8,53.89c0-1.42-0.05-2.63-0.09-3.63h3.07l0.16,1.56h0.07c0.47-0.72,1.63-1.82,3.51-1.82
	c2.32,0,4.07,1.54,4.07,4.89v6.75h-3.54v-6.31c0-1.46-0.51-2.46-1.79-2.46c-0.97,0-1.56,0.67-1.79,1.33
	c-0.09,0.21-0.14,0.56-0.14,0.88v6.56h-3.54V53.89z"/>
<path class="st0" d="M238.42,58.54c0.65,0.4,2,0.86,3.05,0.86c1.07,0,1.51-0.38,1.51-0.95c0-0.58-0.35-0.86-1.68-1.3
	c-2.35-0.79-3.25-2.07-3.23-3.42c0-2.12,1.81-3.72,4.63-3.72c1.33,0,2.51,0.31,3.21,0.65l-0.63,2.44c-0.51-0.28-1.49-0.65-2.47-0.65
	c-0.86,0-1.35,0.35-1.35,0.93c0,0.54,0.44,0.82,1.84,1.31c2.16,0.74,3.07,1.84,3.09,3.51c0,2.12-1.67,3.67-4.93,3.67
	c-1.49,0-2.81-0.33-3.67-0.79L238.42,58.54z"/>
<path class="st0" d="M255.43,54.65c0-0.86-0.37-2.3-2-2.3c-1.49,0-2.1,1.35-2.19,2.3H255.43z M251.27,57.07
	c0.12,1.46,1.56,2.17,3.21,2.17c1.21,0,2.19-0.16,3.14-0.46l0.47,2.39c-1.16,0.47-2.58,0.7-4.12,0.7c-3.86,0-6.07-2.23-6.07-5.79
	c0-2.88,1.79-6.07,5.75-6.07c3.67,0,5.07,2.86,5.07,5.68c0,0.6-0.07,1.14-0.11,1.39H251.27z"/>
<g>
	<path class="st0" d="M38.3,0.57l-8.91,27.42H0.56l23.32,16.95l-8.91,27.42L38.3,55.4l23.32,16.94l-8.91-27.42l23.32-16.95H47.21
		L38.3,0.57z"/>
	<path class="st1" d="M0.57,27.99l23.32,16.95l-8.91,27.42l61.06-44.36H0.57z M13.74,32.27h49.13L23.12,61.14l4.84-14.89l0.96-2.96
		l-2.52-1.83L13.74,32.27z"/>
	<polyline class="st2" points="28.92,43.3 26.4,41.47 13.74,32.27 62.87,32.27 23.12,61.14 	"/>
</g>
</svg>
