<?xml version="1.0" encoding="utf-8"?>
<!-- Generator: Adobe Illustrator 25.2.3, SVG Export Plug-In . SVG Version: 6.00 Build 0)  -->
<svg version="1.1" id="Layer_1" xmlns="http://www.w3.org/2000/svg" xmlns:xlink="http://www.w3.org/1999/xlink" x="0px" y="0px"
	 viewBox="0 0 518.83 146.22" style="enable-background:new 0 0 518.83 146.22;" xml:space="preserve">
<style type="text/css">
	.st0{fill:#003087;}
	.st1{fill:#00B3E3;}
</style>
<polygon class="st0" points="175.75,60.24 169.82,60.24 169.82,56.05 186.77,56.05 186.77,60.24 180.75,60.24 180.75,78.11 
	175.75,78.11 "/>
<polygon class="st0" points="203.12,68.78 195,68.78 195,74.02 204.07,74.02 204.07,78.11 190,78.11 190,56.05 203.61,56.05 
	203.61,60.14 195,60.14 195,64.72 203.12,64.72 "/>
<path class="st0" d="M220.07,78.11l-2-3.99c-0.82-1.54-1.34-2.68-1.96-3.96h-0.07c-0.46,1.28-1.01,2.42-1.7,3.96l-1.83,3.99h-5.69
	l6.38-11.16l-6.15-10.9h5.73l1.93,4.03c0.66,1.34,1.15,2.42,1.67,3.66h0.06c0.52-1.41,0.95-2.39,1.51-3.66l1.86-4.03h5.69
	l-6.22,10.77l6.55,11.29H220.07z"/>
<path class="st0" d="M240.54,68.72l-1.38-4.68c-0.39-1.31-0.79-2.94-1.11-4.25h-0.07c-0.33,1.31-0.66,2.98-1.01,4.25l-1.31,4.68
	H240.54z M234.94,72.45l-1.57,5.66h-5.17l6.74-22.06h6.55l6.84,22.06h-5.37l-1.7-5.66H234.94z"/>
<path class="st0" d="M252.19,72.97c1.34,0.69,3.41,1.38,5.53,1.38c2.29,0,3.5-0.95,3.5-2.39c0-1.38-1.05-2.16-3.7-3.11
	c-3.66-1.28-6.05-3.31-6.05-6.51c0-3.76,3.14-6.64,8.35-6.64c2.49,0,4.32,0.52,5.63,1.11l-1.12,4.03c-0.88-0.43-2.45-1.05-4.61-1.05
	c-2.16,0-3.21,0.98-3.21,2.13c0,1.41,1.24,2.03,4.09,3.11c3.89,1.44,5.73,3.47,5.73,6.58c0,3.7-2.85,6.84-8.9,6.84
	c-2.52,0-5.01-0.65-6.25-1.34L252.19,72.97z"/>
<polygon class="st0" points="283.37,60.24 277.45,60.24 277.45,56.05 294.4,56.05 294.4,60.24 288.38,60.24 288.38,78.11 
	283.37,78.11 "/>
<path class="st0" d="M306.7,68.72l-1.37-4.68c-0.39-1.31-0.79-2.94-1.11-4.25h-0.06c-0.33,1.31-0.66,2.98-1.01,4.25l-1.31,4.68
	H306.7z M301.1,72.45l-1.57,5.66h-5.17l6.74-22.06h6.55l6.84,22.06h-5.37l-1.7-5.66H301.1z"/>
<path class="st0" d="M322.21,65.83h1.96c2.49,0,3.96-1.24,3.96-3.17c0-2.03-1.38-3.04-3.66-3.08c-1.21,0-1.9,0.1-2.26,0.16V65.83z
	 M317.27,56.34c1.6-0.26,3.99-0.46,6.64-0.46c3.27,0,5.56,0.49,7.14,1.74c1.31,1.05,2.03,2.58,2.03,4.61c0,2.82-2,4.75-3.89,5.43
	v0.1c1.54,0.62,2.39,2.1,2.94,4.13c0.69,2.49,1.38,5.37,1.8,6.22h-5.11c-0.36-0.62-0.88-2.42-1.54-5.14
	c-0.59-2.75-1.54-3.5-3.57-3.54h-1.5v8.67h-4.94V56.34z"/>
<path class="st0" d="M355.1,77.09c-1.54,0.52-4.45,1.24-7.36,1.24c-4.03,0-6.94-1.02-8.97-2.98c-2.03-1.9-3.14-4.78-3.11-8.02
	c0.03-7.33,5.37-11.52,12.6-11.52c2.85,0,5.04,0.56,6.12,1.08l-1.05,3.99c-1.21-0.52-2.71-0.95-5.14-0.95c-4.16,0-7.3,2.36-7.3,7.13
	c0,4.55,2.85,7.23,6.94,7.23c1.15,0,2.06-0.13,2.46-0.33v-4.61h-3.4v-3.89h8.21V77.09z"/>
<polygon class="st0" points="371.8,68.78 363.68,68.78 363.68,74.02 372.75,74.02 372.75,78.11 358.68,78.11 358.68,56.05 
	372.29,56.05 372.29,60.14 363.68,60.14 363.68,64.72 371.8,64.72 "/>
<polygon class="st0" points="381.8,60.24 375.87,60.24 375.87,56.05 392.82,56.05 392.82,60.24 386.8,60.24 386.8,78.11 
	381.8,78.11 "/>
<polygon class="st0" points="409.17,68.78 401.06,68.78 401.06,74.02 410.12,74.02 410.12,78.11 396.05,78.11 396.05,56.05 
	409.66,56.05 409.66,60.14 401.06,60.14 401.06,64.72 409.17,64.72 "/>
<path class="st0" d="M418.87,74.34c0.43,0.1,1.11,0.1,1.73,0.1c4.52,0.03,7.46-2.46,7.46-7.73c0.03-4.58-2.65-7-6.94-7
	c-1.11,0-1.83,0.1-2.26,0.2V74.34z M413.86,56.34c1.83-0.29,4.22-0.46,6.74-0.46c4.19,0,6.91,0.75,9.03,2.36
	c2.29,1.7,3.73,4.42,3.73,8.31c0,4.22-1.54,7.14-3.66,8.93c-2.32,1.93-5.86,2.85-10.18,2.85c-2.59,0-4.42-0.16-5.66-0.33V56.34z"/>
<path class="st0" d="M177.27,107.98c0,6.16,2.89,10.51,7.65,10.51c4.81,0,7.56-4.57,7.56-10.68c0-5.65-2.71-10.51-7.61-10.51
	C180.07,97.29,177.27,101.86,177.27,107.98 M199.99,107.56c0,10.32-6.25,16.57-15.45,16.57c-9.33,0-14.79-7.05-14.79-16
	c0-9.42,6.01-16.48,15.3-16.48C194.72,91.65,199.99,98.88,199.99,107.56"/>
<path class="st0" d="M211.74,113.81c0,0.56,0.04,1.08,0.14,1.5c0.47,1.91,2.1,3.35,4.15,3.35c3.09,0,4.9-2.56,4.9-6.44
	c0-3.63-1.63-6.39-4.8-6.39c-2.01,0-3.78,1.5-4.25,3.59c-0.1,0.38-0.14,0.84-0.14,1.26V113.81z M204.65,108.44
	c0-2.99-0.1-5.55-0.19-7.65h6.16l0.33,3.18h0.09c1.69-2.43,4.3-3.69,7.61-3.69c4.99,0,9.47,4.35,9.47,11.63
	c0,8.31-5.28,12.22-10.37,12.22c-2.75,0-4.89-1.12-5.92-2.62h-0.09v11.34h-7.09V108.44z"/>
<path class="st0" d="M232.58,100.79h7.09v22.82h-7.09V100.79z M239.9,94.45c0,1.96-1.49,3.54-3.82,3.54c-2.24,0-3.74-1.59-3.69-3.54
	c-0.05-2.05,1.45-3.6,3.73-3.6C238.41,90.85,239.86,92.4,239.9,94.45"/>
<path class="st0" d="M251.4,112.18c0,3.92,1.63,6.86,4.66,6.86c2.75,0,4.53-2.75,4.53-6.86c0-3.41-1.31-6.86-4.53-6.86
	C252.66,105.32,251.4,108.82,251.4,112.18 M267.92,111.94c0,8.35-5.93,12.18-12.05,12.18c-6.67,0-11.8-4.38-11.8-11.76
	c0-7.38,4.85-12.09,12.18-12.09C263.25,100.28,267.92,105.09,267.92,111.94"/>
<path class="st0" d="M272.33,100.79h7.09v22.82h-7.09V100.79z M279.65,94.45c0,1.96-1.49,3.54-3.82,3.54
	c-2.24,0-3.74-1.59-3.69-3.54c-0.05-2.05,1.45-3.6,3.73-3.6C278.16,90.85,279.61,92.4,279.65,94.45"/>
<path class="st0" d="M300.15,110.46c0-0.38-0.04-0.89-0.09-1.26c-0.42-1.91-1.96-3.5-4.16-3.5c-3.22,0-4.9,2.9-4.9,6.49
	c0,3.87,1.91,6.3,4.86,6.3c2.05,0,3.68-1.4,4.1-3.41c0.15-0.51,0.19-1.02,0.19-1.63V110.46z M307.24,90.48v26.31
	c0,2.57,0.1,5.28,0.19,6.81h-6.3l-0.33-3.36h-0.09c-1.45,2.57-4.21,3.88-7.14,3.88c-5.41,0-9.75-4.62-9.75-11.72
	c-0.04-7.7,4.76-12.13,10.22-12.13c2.8,0,4.99,0.98,6.02,2.57h0.09V90.48H307.24z"/>
<path class="st0" d="M329.67,106.11h2.8c3.54,0,5.65-1.77,5.65-4.53c0-2.89-1.96-4.34-5.23-4.38c-1.73,0-2.71,0.14-3.22,0.24V106.11
	z M322.62,92.58c2.29-0.37,5.69-0.65,9.47-0.65c4.66,0,7.94,0.69,10.17,2.47c1.87,1.49,2.9,3.68,2.9,6.58
	c0,4.01-2.85,6.77-5.56,7.75v0.14c2.19,0.89,3.41,2.99,4.21,5.88c0.97,3.55,1.95,7.66,2.56,8.87h-7.27
	c-0.52-0.88-1.26-3.45-2.19-7.32c-0.84-3.92-2.19-5-5.09-5.04h-2.14v12.36h-7.05V92.58z"/>
<path class="st0" d="M363.9,109.61c0-1.73-0.74-4.62-4.01-4.62c-2.99,0-4.21,2.71-4.39,4.62H363.9z M355.55,114.46
	c0.24,2.94,3.13,4.34,6.44,4.34c2.43,0,4.39-0.33,6.3-0.93l0.93,4.8c-2.33,0.93-5.18,1.4-8.26,1.4c-7.75,0-12.18-4.48-12.18-11.62
	c0-5.78,3.59-12.18,11.53-12.18c7.37,0,10.17,5.74,10.17,11.39c0,1.21-0.14,2.28-0.23,2.8H355.55z"/>
<path class="st0" d="M374.7,117.4c1.31,0.79,4.02,1.73,6.11,1.73c2.15,0,3.03-0.75,3.03-1.91c0-1.17-0.7-1.73-3.36-2.62
	c-4.71-1.59-6.53-4.15-6.48-6.86c0-4.25,3.63-7.47,9.29-7.47c2.66,0,5.03,0.61,6.44,1.31l-1.26,4.9c-1.03-0.56-2.99-1.31-4.95-1.31
	c-1.73,0-2.71,0.7-2.71,1.86c0,1.08,0.89,1.64,3.69,2.62c4.33,1.49,6.16,3.68,6.2,7.05c0,4.25-3.36,7.37-9.89,7.37
	c-2.99,0-5.65-0.65-7.37-1.59L374.7,117.4z"/>
<path class="st0" d="M402.12,113.81c0,0.56,0.04,1.08,0.14,1.5c0.47,1.91,2.1,3.35,4.15,3.35c3.09,0,4.9-2.56,4.9-6.44
	c0-3.63-1.63-6.39-4.8-6.39c-2.01,0-3.78,1.5-4.25,3.59c-0.1,0.38-0.14,0.84-0.14,1.26V113.81z M395.02,108.44
	c0-2.99-0.1-5.55-0.19-7.65H401l0.33,3.18h0.09c1.69-2.43,4.3-3.69,7.61-3.69c4.99,0,9.47,4.35,9.47,11.63
	c0,8.31-5.28,12.22-10.37,12.22c-2.75,0-4.89-1.12-5.92-2.62h-0.09v11.34h-7.09V108.44z"/>
<path class="st0" d="M429.12,112.18c0,3.92,1.63,6.86,4.66,6.86c2.75,0,4.53-2.75,4.53-6.86c0-3.41-1.31-6.86-4.53-6.86
	C430.38,105.32,429.12,108.82,429.12,112.18 M445.63,111.94c0,8.35-5.92,12.18-12.04,12.18c-6.67,0-11.8-4.38-11.8-11.76
	c0-7.38,4.85-12.09,12.18-12.09C440.97,100.28,445.63,105.09,445.63,111.94"/>
<path class="st0" d="M450.05,108.07c0-2.85-0.1-5.28-0.19-7.28h6.16l0.33,3.13h0.14c0.93-1.45,3.26-3.64,7.05-3.64
	c4.66,0,8.17,3.09,8.17,9.8v13.53h-7.09v-12.65c0-2.94-1.02-4.94-3.59-4.94c-1.96,0-3.13,1.35-3.59,2.66
	c-0.19,0.42-0.28,1.12-0.28,1.78v13.16h-7.09V108.07z"/>
<path class="st0" d="M477.37,117.4c1.31,0.79,4.02,1.73,6.11,1.73c2.15,0,3.04-0.75,3.04-1.91c0-1.17-0.71-1.73-3.36-2.62
	c-4.71-1.59-6.53-4.15-6.48-6.86c0-4.25,3.63-7.47,9.29-7.47c2.66,0,5.03,0.61,6.44,1.31l-1.26,4.9c-1.03-0.56-2.99-1.31-4.95-1.31
	c-1.73,0-2.71,0.7-2.71,1.86c0,1.08,0.89,1.64,3.69,2.62c4.33,1.49,6.16,3.68,6.2,7.05c0,4.25-3.35,7.37-9.89,7.37
	c-2.99,0-5.65-0.65-7.37-1.59L477.37,117.4z"/>
<path class="st0" d="M511.5,109.61c0-1.73-0.74-4.62-4.01-4.62c-2.99,0-4.21,2.71-4.39,4.62H511.5z M503.15,114.46
	c0.24,2.94,3.13,4.34,6.44,4.34c2.43,0,4.39-0.33,6.3-0.93l0.93,4.8c-2.33,0.93-5.18,1.4-8.26,1.4c-7.75,0-12.18-4.48-12.18-11.62
	c0-5.78,3.59-12.18,11.53-12.18c7.37,0,10.17,5.74,10.17,11.39c0,1.21-0.14,2.28-0.23,2.8H503.15z"/>
<path class="st0" d="M75.91,1.11l-17.87,55H0.2l46.79,34l-17.88,55l46.79-33.99l46.79,33.99l-17.88-55l46.79-34H93.78L75.91,1.11z
	 M75.91,28.22l9.9,30.48l1.88,5.79h6.09h32.05L99.9,83.33l-4.92,3.58l1.88,5.79l9.9,30.48l-25.93-18.84l-4.93-3.58l-4.93,3.58
	l-25.93,18.84l9.9-30.48l1.88-5.79l-4.92-3.58L25.99,64.49h32.05h6.09l1.88-5.79L75.91,28.22z"/>
<path class="st1" d="M0.2,56.11l46.79,34l-17.87,55l122.5-89H0.2z M26.63,64.7h98.55l-79.73,57.93l9.7-29.86l1.93-5.94l-5.05-3.67
	L26.63,64.7z"/>
</svg>
