<?xml version="1.0" encoding="utf-8"?>
<!-- Generator: Adobe Illustrator 25.2.3, SVG Export Plug-In . SVG Version: 6.00 Build 0)  -->
<svg version="1.1" id="Layer_1" xmlns="http://www.w3.org/2000/svg" xmlns:xlink="http://www.w3.org/1999/xlink" x="0px" y="0px"
	 viewBox="0 0 250.65 70.25" style="enable-background:new 0 0 250.65 70.25;" xml:space="preserve">
<style type="text/css">
	.st0{fill:#FFFFFF;}
</style>
<g>
	<g>
		<polygon class="st0" points="85.25,28.65 82.4,28.65 82.4,26.63 90.57,26.63 90.57,28.65 87.67,28.65 87.67,37.26 85.25,37.26 		
			"/>
		<polygon class="st0" points="98.45,32.77 94.54,32.77 94.54,35.29 98.91,35.29 98.91,37.26 92.12,37.26 92.12,26.63 98.69,26.63 
			98.69,28.6 94.54,28.6 94.54,30.81 98.45,30.81 		"/>
		<path class="st0" d="M106.62,37.26l-0.96-1.92c-0.39-0.74-0.65-1.29-0.95-1.91h-0.03c-0.22,0.62-0.49,1.17-0.82,1.91l-0.88,1.92
			h-2.74l3.08-5.38l-2.97-5.26h2.76l0.93,1.94c0.32,0.65,0.55,1.17,0.81,1.77h0.03c0.25-0.68,0.46-1.15,0.73-1.77l0.9-1.94h2.74
			l-3,5.19l3.16,5.44H106.62z"/>
		<path class="st0" d="M116.49,32.73l-0.66-2.26c-0.19-0.63-0.38-1.42-0.54-2.05h-0.03c-0.16,0.63-0.32,1.44-0.49,2.05l-0.63,2.26
			H116.49z M113.79,34.53l-0.76,2.73h-2.49l3.25-10.64h3.16l3.3,10.64h-2.59l-0.82-2.73H113.79z"/>
		<path class="st0" d="M122.11,34.79c0.65,0.33,1.64,0.66,2.67,0.66c1.1,0,1.69-0.46,1.69-1.15c0-0.66-0.5-1.04-1.78-1.5
			c-1.77-0.62-2.92-1.59-2.92-3.14c0-1.81,1.51-3.2,4.02-3.2c1.2,0,2.08,0.25,2.72,0.54l-0.54,1.94c-0.43-0.21-1.18-0.51-2.22-0.51
			c-1.04,0-1.55,0.47-1.55,1.02c0,0.68,0.6,0.98,1.97,1.5c1.88,0.69,2.76,1.67,2.76,3.17c0,1.78-1.37,3.3-4.29,3.3
			c-1.21,0-2.42-0.32-3.01-0.65L122.11,34.79z"/>
		<polygon class="st0" points="137.15,28.65 134.29,28.65 134.29,26.63 142.46,26.63 142.46,28.65 139.56,28.65 139.56,37.26 
			137.15,37.26 		"/>
		<path class="st0" d="M148.39,32.73l-0.66-2.26c-0.19-0.63-0.38-1.42-0.54-2.05h-0.03c-0.16,0.63-0.32,1.44-0.49,2.05l-0.63,2.26
			H148.39z M145.69,34.53l-0.76,2.73h-2.49l3.25-10.64h3.16l3.3,10.64h-2.59l-0.82-2.73H145.69z"/>
		<path class="st0" d="M155.87,31.35h0.95c1.2,0,1.91-0.6,1.91-1.53c0-0.98-0.66-1.47-1.77-1.48c-0.58,0-0.92,0.05-1.09,0.08V31.35z
			 M153.49,26.77c0.77-0.13,1.92-0.22,3.2-0.22c1.58,0,2.68,0.24,3.44,0.84c0.63,0.5,0.98,1.25,0.98,2.22
			c0,1.36-0.96,2.29-1.88,2.62v0.05c0.74,0.3,1.15,1.01,1.42,1.99c0.33,1.2,0.66,2.59,0.87,3h-2.46c-0.17-0.3-0.43-1.17-0.74-2.48
			c-0.28-1.33-0.74-1.69-1.72-1.71h-0.72v4.18h-2.38V26.77z"/>
		<path class="st0" d="M171.73,36.77c-0.74,0.25-2.15,0.6-3.55,0.6c-1.94,0-3.35-0.49-4.32-1.44c-0.98-0.91-1.52-2.3-1.5-3.87
			c0.02-3.53,2.59-5.55,6.07-5.55c1.37,0,2.43,0.27,2.95,0.52l-0.51,1.92c-0.58-0.25-1.31-0.46-2.48-0.46c-2,0-3.52,1.14-3.52,3.44
			c0,2.19,1.37,3.49,3.35,3.49c0.55,0,0.99-0.06,1.18-0.16v-2.23h-1.64v-1.88h3.96V36.77z"/>
		<polygon class="st0" points="179.78,32.77 175.87,32.77 175.87,35.29 180.24,35.29 180.24,37.26 173.46,37.26 173.46,26.63 
			180.02,26.63 180.02,28.6 175.87,28.6 175.87,30.81 179.78,30.81 		"/>
		<polygon class="st0" points="184.6,28.65 181.75,28.65 181.75,26.63 189.92,26.63 189.92,28.65 187.02,28.65 187.02,37.26 
			184.6,37.26 		"/>
		<polygon class="st0" points="197.8,32.77 193.89,32.77 193.89,35.29 198.26,35.29 198.26,37.26 191.48,37.26 191.48,26.63 
			198.04,26.63 198.04,28.6 193.89,28.6 193.89,30.81 197.8,30.81 		"/>
		<path class="st0" d="M202.48,35.45c0.21,0.05,0.54,0.05,0.84,0.05c2.18,0.02,3.6-1.18,3.6-3.73c0.02-2.21-1.28-3.38-3.35-3.38
			c-0.54,0-0.88,0.05-1.09,0.1V35.45z M200.06,26.77c0.88-0.14,2.04-0.22,3.25-0.22c2.02,0,3.33,0.36,4.36,1.14
			c1.11,0.82,1.8,2.13,1.8,4.01c0,2.04-0.74,3.44-1.77,4.31c-1.12,0.93-2.82,1.37-4.91,1.37c-1.25,0-2.13-0.08-2.73-0.16V26.77z"/>
		<path class="st0" d="M85.99,51.66c0,2.97,1.39,5.07,3.69,5.07c2.32,0,3.65-2.21,3.65-5.15c0-2.72-1.31-5.07-3.67-5.07
			C87.34,46.51,85.99,48.72,85.99,51.66 M96.94,51.46c0,4.98-3.01,7.99-7.45,7.99c-4.5,0-7.13-3.4-7.13-7.72
			c0-4.54,2.9-7.94,7.38-7.94C94.4,43.79,96.94,47.28,96.94,51.46"/>
		<path class="st0" d="M102.61,54.48c0,0.27,0.02,0.52,0.07,0.72c0.23,0.92,1.01,1.62,2,1.62c1.49,0,2.36-1.23,2.36-3.1
			c0-1.75-0.79-3.08-2.32-3.08c-0.97,0-1.82,0.72-2.05,1.73c-0.05,0.18-0.07,0.41-0.07,0.61V54.48z M99.19,51.89
			c0-1.44-0.05-2.67-0.09-3.69h2.97l0.16,1.53h0.04c0.81-1.17,2.07-1.78,3.67-1.78c2.41,0,4.57,2.1,4.57,5.61c0,4-2.54,5.89-5,5.89
			c-1.33,0-2.36-0.54-2.86-1.26h-0.04v5.47h-3.42V51.89z"/>
		<path class="st0" d="M112.66,48.2h3.42v11h-3.42V48.2z M116.19,45.14c0,0.94-0.72,1.71-1.84,1.71c-1.08,0-1.8-0.76-1.78-1.71
			c-0.02-0.99,0.7-1.74,1.8-1.74C115.47,43.41,116.17,44.15,116.19,45.14"/>
		<path class="st0" d="M121.73,53.69c0,1.89,0.78,3.31,2.25,3.31c1.32,0,2.18-1.33,2.18-3.31c0-1.64-0.63-3.31-2.18-3.31
			C122.34,50.38,121.73,52.07,121.73,53.69 M129.69,53.58c0,4.03-2.86,5.87-5.81,5.87c-3.21,0-5.69-2.11-5.69-5.67
			c0-3.56,2.34-5.83,5.87-5.83C127.44,47.95,129.69,50.27,129.69,53.58"/>
		<path class="st0" d="M131.82,48.2h3.42v11h-3.42V48.2z M135.35,45.14c0,0.94-0.72,1.71-1.84,1.71c-1.08,0-1.8-0.76-1.78-1.71
			c-0.02-0.99,0.7-1.74,1.8-1.74C134.63,43.41,135.33,44.15,135.35,45.14"/>
		<path class="st0" d="M145.23,52.86c0-0.18-0.02-0.43-0.04-0.61c-0.2-0.92-0.95-1.69-2-1.69c-1.55,0-2.36,1.4-2.36,3.13
			c0,1.87,0.92,3.04,2.34,3.04c0.99,0,1.77-0.67,1.98-1.64c0.07-0.24,0.09-0.49,0.09-0.79V52.86z M148.65,43.23v12.69
			c0,1.24,0.05,2.54,0.09,3.29h-3.04l-0.16-1.62h-0.04c-0.7,1.24-2.03,1.87-3.44,1.87c-2.61,0-4.7-2.23-4.7-5.65
			c-0.02-3.71,2.3-5.85,4.93-5.85c1.35,0,2.41,0.47,2.9,1.24h0.04v-5.96H148.65z"/>
		<path class="st0" d="M159.47,50.77h1.35c1.71,0,2.72-0.85,2.72-2.18c0-1.39-0.95-2.09-2.52-2.11c-0.83,0-1.31,0.07-1.55,0.11
			V50.77z M156.07,44.24c1.1-0.18,2.74-0.31,4.57-0.31c2.25,0,3.83,0.33,4.9,1.19c0.9,0.72,1.4,1.78,1.4,3.17
			c0,1.93-1.37,3.26-2.68,3.74v0.07c1.06,0.43,1.65,1.44,2.03,2.83c0.47,1.71,0.94,3.69,1.23,4.28h-3.51
			c-0.25-0.42-0.61-1.66-1.06-3.53c-0.41-1.89-1.06-2.41-2.45-2.43h-1.03v5.96h-3.4V44.24z"/>
		<path class="st0" d="M175.97,52.45c0-0.83-0.36-2.23-1.93-2.23c-1.44,0-2.03,1.31-2.12,2.23H175.97z M171.95,54.79
			c0.11,1.42,1.51,2.1,3.1,2.1c1.17,0,2.12-0.16,3.04-0.45l0.45,2.32c-1.12,0.45-2.5,0.67-3.98,0.67c-3.74,0-5.87-2.16-5.87-5.6
			c0-2.79,1.73-5.88,5.56-5.88c3.56,0,4.9,2.77,4.9,5.49c0,0.58-0.07,1.1-0.11,1.35H171.95z"/>
		<path class="st0" d="M181.18,56.21c0.63,0.38,1.94,0.84,2.95,0.84c1.04,0,1.46-0.36,1.46-0.92c0-0.56-0.34-0.83-1.62-1.26
			c-2.27-0.77-3.15-2-3.12-3.31c0-2.05,1.75-3.6,4.48-3.6c1.28,0,2.43,0.3,3.1,0.63l-0.61,2.36c-0.5-0.27-1.44-0.63-2.39-0.63
			c-0.83,0-1.31,0.34-1.31,0.9c0,0.52,0.43,0.79,1.78,1.26c2.09,0.72,2.97,1.78,2.99,3.4c0,2.05-1.62,3.55-4.77,3.55
			c-1.44,0-2.72-0.32-3.55-0.77L181.18,56.21z"/>
		<path class="st0" d="M194.4,54.48c0,0.27,0.02,0.52,0.07,0.72c0.22,0.92,1.01,1.62,2,1.62c1.49,0,2.36-1.23,2.36-3.1
			c0-1.75-0.79-3.08-2.32-3.08c-0.97,0-1.82,0.72-2.05,1.73c-0.05,0.18-0.07,0.41-0.07,0.61V54.48z M190.98,51.89
			c0-1.44-0.05-2.67-0.09-3.69h2.97l0.16,1.53h0.04c0.81-1.17,2.07-1.78,3.67-1.78c2.41,0,4.57,2.1,4.57,5.61c0,4-2.55,5.89-5,5.89
			c-1.32,0-2.36-0.54-2.85-1.26h-0.04v5.47h-3.42V51.89z"/>
		<path class="st0" d="M207.42,53.69c0,1.89,0.78,3.31,2.25,3.31c1.33,0,2.18-1.33,2.18-3.31c0-1.64-0.63-3.31-2.18-3.31
			C208.03,50.38,207.42,52.07,207.42,53.69 M215.38,53.58c0,4.03-2.86,5.87-5.8,5.87c-3.21,0-5.69-2.11-5.69-5.67
			c0-3.56,2.34-5.83,5.87-5.83C213.13,47.95,215.38,50.27,215.38,53.58"/>
		<path class="st0" d="M217.51,51.71c0-1.37-0.05-2.54-0.09-3.51h2.97l0.16,1.51h0.07c0.45-0.7,1.57-1.76,3.4-1.76
			c2.25,0,3.94,1.49,3.94,4.73v6.52h-3.42v-6.1c0-1.42-0.49-2.38-1.73-2.38c-0.94,0-1.51,0.65-1.73,1.28
			c-0.09,0.2-0.13,0.54-0.13,0.86v6.34h-3.42V51.71z"/>
		<path class="st0" d="M230.69,56.21c0.63,0.38,1.94,0.84,2.95,0.84c1.04,0,1.46-0.36,1.46-0.92c0-0.56-0.34-0.83-1.62-1.26
			c-2.27-0.77-3.15-2-3.12-3.31c0-2.05,1.75-3.6,4.48-3.6c1.28,0,2.43,0.3,3.1,0.63l-0.61,2.36c-0.5-0.27-1.44-0.63-2.39-0.63
			c-0.83,0-1.31,0.34-1.31,0.9c0,0.52,0.43,0.79,1.78,1.26c2.09,0.72,2.97,1.78,2.99,3.4c0,2.05-1.62,3.55-4.77,3.55
			c-1.44,0-2.72-0.32-3.55-0.77L230.69,56.21z"/>
		<path class="st0" d="M247.14,52.45c0-0.83-0.36-2.23-1.93-2.23c-1.44,0-2.03,1.31-2.12,2.23H247.14z M243.12,54.79
			c0.11,1.42,1.51,2.1,3.1,2.1c1.17,0,2.11-0.16,3.04-0.45l0.45,2.32c-1.12,0.45-2.5,0.67-3.98,0.67c-3.74,0-5.87-2.16-5.87-5.6
			c0-2.79,1.73-5.88,5.56-5.88c3.55,0,4.9,2.77,4.9,5.49c0,0.58-0.07,1.1-0.11,1.35H243.12z"/>
	</g>
	<path class="st0" d="M73.62,26.66L73.62,26.66l-27.89,0L37.11,0.14L28.5,26.66H0.61l0,0h0l17.44,12.67l5.12,3.72L19.32,54.9
		l-4.77,14.67l0,0l0,0l10.49-7.62l12.07-8.77l22.56,16.39l-8.62-26.52L73.62,26.66L73.62,26.66z M37.11,13.21l4.37,13.45h-8.74
		L37.11,13.21z M51.99,58.99l-11.44-8.31l7.07-5.14L51.99,58.99z"/>
</g>
</svg>
