<?xml version="1.0" encoding="utf-8"?>
<!-- Generator: Adobe Illustrator 25.2.3, SVG Export Plug-In . SVG Version: 6.00 Build 0)  -->
<svg version="1.1" id="Layer_1" xmlns="http://www.w3.org/2000/svg" xmlns:xlink="http://www.w3.org/1999/xlink" x="0px" y="0px"
	 viewBox="0 0 258.91 72.1" style="enable-background:new 0 0 258.91 72.1;" xml:space="preserve">
<style type="text/css">
	.st0{fill:#FFFFFF;}
</style>
<g>
	<g>
		<polygon class="st0" points="88.08,29.5 85.13,29.5 85.13,27.41 93.58,27.41 93.58,29.5 90.57,29.5 90.57,38.41 88.08,38.41 		"/>
		<polygon class="st0" points="101.73,33.76 97.68,33.76 97.68,36.37 102.2,36.37 102.2,38.41 95.18,38.41 95.18,27.41 
			101.97,27.41 101.97,29.45 97.68,29.45 97.68,31.73 101.73,31.73 		"/>
		<path class="st0" d="M110.17,38.41l-1-1.99c-0.41-0.77-0.67-1.34-0.98-1.97h-0.03c-0.23,0.64-0.51,1.21-0.85,1.97l-0.91,1.99
			h-2.84l3.18-5.56l-3.07-5.43h2.85l0.96,2.01c0.33,0.67,0.57,1.21,0.83,1.83h0.03c0.26-0.7,0.47-1.19,0.75-1.83l0.93-2.01h2.84
			l-3.1,5.37l3.26,5.63H110.17z"/>
		<path class="st0" d="M120.38,33.72l-0.69-2.33c-0.2-0.65-0.39-1.47-0.55-2.12h-0.03c-0.16,0.65-0.33,1.48-0.51,2.12l-0.65,2.33
			H120.38z M117.59,35.58l-0.78,2.82h-2.58l3.36-11h3.26l3.41,11h-2.68l-0.85-2.82H117.59z"/>
		<path class="st0" d="M126.19,35.84c0.67,0.34,1.7,0.69,2.76,0.69c1.14,0,1.75-0.47,1.75-1.19c0-0.69-0.52-1.08-1.84-1.55
			c-1.83-0.64-3.02-1.65-3.02-3.25c0-1.88,1.57-3.31,4.16-3.31c1.24,0,2.15,0.26,2.81,0.56l-0.56,2.01
			c-0.44-0.21-1.22-0.52-2.3-0.52c-1.08,0-1.6,0.49-1.6,1.06c0,0.7,0.62,1.01,2.04,1.55c1.94,0.72,2.85,1.73,2.85,3.28
			c0,1.84-1.42,3.41-4.44,3.41c-1.26,0-2.5-0.33-3.12-0.67L126.19,35.84z"/>
		<polygon class="st0" points="141.73,29.5 138.78,29.5 138.78,27.41 147.23,27.41 147.23,29.5 144.23,29.5 144.23,38.41 
			141.73,38.41 		"/>
		<path class="st0" d="M153.36,33.72l-0.68-2.33c-0.2-0.65-0.39-1.47-0.56-2.12h-0.03c-0.16,0.65-0.33,1.48-0.51,2.12l-0.65,2.33
			H153.36z M150.57,35.58l-0.78,2.82h-2.58l3.36-11h3.26l3.41,11h-2.68l-0.85-2.82L150.57,35.58z"/>
		<path class="st0" d="M161.1,32.29l0.98,0c1.24,0,1.97-0.62,1.97-1.58c0-1.01-0.69-1.52-1.83-1.53c-0.6,0-0.95,0.05-1.13,0.08
			V32.29z M158.63,27.56c0.8-0.13,1.99-0.23,3.31-0.23c1.63,0,2.77,0.25,3.56,0.87c0.65,0.52,1.01,1.29,1.01,2.3
			c0,1.4-1,2.37-1.94,2.71v0.05c0.77,0.31,1.19,1.05,1.47,2.06c0.34,1.24,0.69,2.68,0.9,3.1h-2.55c-0.18-0.31-0.44-1.21-0.77-2.56
			c-0.29-1.37-0.77-1.75-1.78-1.76l-0.75,0v4.32h-2.46V27.56z"/>
		<path class="st0" d="M177.49,37.9c-0.77,0.26-2.22,0.62-3.67,0.62c-2.01,0-3.46-0.51-4.47-1.48c-1.01-0.95-1.57-2.38-1.55-4
			c0.02-3.65,2.68-5.74,6.28-5.74c1.42,0,2.51,0.28,3.05,0.54l-0.52,1.99c-0.6-0.26-1.35-0.47-2.56-0.47
			c-2.07,0-3.64,1.17-3.64,3.56c0,2.27,1.42,3.61,3.46,3.61c0.57,0,1.03-0.07,1.22-0.16v-2.3h-1.7v-1.94h4.1V37.9z"/>
		<polygon class="st0" points="185.82,33.76 181.77,33.76 181.77,36.37 186.29,36.37 186.29,38.41 179.28,38.41 179.28,27.41 
			186.06,27.41 186.06,29.45 181.77,29.45 181.77,31.73 185.82,31.73 		"/>
		<polygon class="st0" points="190.8,29.5 187.85,29.5 187.85,27.41 196.3,27.41 196.3,29.5 193.3,29.5 193.3,38.41 190.8,38.41 		
			"/>
		<polygon class="st0" points="204.45,33.76 200.4,33.76 200.4,36.37 204.92,36.37 204.92,38.41 197.91,38.41 197.91,27.41 
			204.69,27.41 204.69,29.45 200.4,29.45 200.4,31.73 204.45,31.73 		"/>
		<path class="st0" d="M209.28,36.53c0.21,0.05,0.55,0.05,0.86,0.05c2.25,0.02,3.72-1.22,3.72-3.85c0.02-2.28-1.32-3.49-3.46-3.49
			c-0.56,0-0.91,0.05-1.13,0.1V36.53z M206.79,27.56c0.91-0.15,2.11-0.23,3.36-0.23c2.09,0,3.44,0.38,4.5,1.18
			c1.14,0.85,1.86,2.2,1.86,4.14c0,2.11-0.77,3.56-1.83,4.45c-1.16,0.96-2.92,1.42-5.07,1.42c-1.29,0-2.2-0.08-2.82-0.16V27.56z"/>
		<path class="st0" d="M88.84,53.3c0,3.07,1.44,5.24,3.81,5.24c2.4,0,3.77-2.28,3.77-5.33c0-2.81-1.35-5.24-3.79-5.24
			C90.24,47.97,88.84,50.25,88.84,53.3 M100.17,53.09c0,5.14-3.12,8.26-7.7,8.26c-4.65,0-7.37-3.51-7.37-7.98
			c0-4.7,3-8.21,7.63-8.21C97.54,45.15,100.17,48.76,100.17,53.09"/>
		<path class="st0" d="M106.02,56.2c0,0.28,0.02,0.54,0.07,0.75c0.23,0.95,1.05,1.67,2.07,1.67c1.54,0,2.44-1.28,2.44-3.21
			c0-1.81-0.81-3.19-2.39-3.19c-1,0-1.88,0.75-2.12,1.79c-0.05,0.19-0.07,0.42-0.07,0.63V56.2z M102.49,53.53
			c0-1.49-0.05-2.77-0.09-3.81h3.07l0.16,1.58h0.04c0.84-1.21,2.14-1.84,3.79-1.84c2.49,0,4.72,2.17,4.72,5.8
			c0,4.14-2.63,6.09-5.17,6.09c-1.37,0-2.44-0.56-2.95-1.3h-0.04v5.65h-3.54V53.53z"/>
		<path class="st0" d="M116.41,49.71h3.54v11.38h-3.54V49.71z M120.06,46.55c0,0.98-0.74,1.77-1.91,1.77
			c-1.12,0-1.86-0.79-1.84-1.77c-0.02-1.02,0.72-1.79,1.86-1.79C119.32,44.76,120.04,45.53,120.06,46.55"/>
		<path class="st0" d="M125.79,55.39c0,1.95,0.81,3.42,2.33,3.42c1.37,0,2.26-1.37,2.26-3.42c0-1.7-0.65-3.42-2.26-3.42
			C126.42,51.97,125.79,53.72,125.79,55.39 M134.03,55.27c0,4.16-2.96,6.07-6.01,6.07c-3.32,0-5.89-2.19-5.89-5.86
			c0-3.68,2.42-6.03,6.07-6.03C131.7,49.46,134.03,51.86,134.03,55.27"/>
		<path class="st0" d="M136.23,49.71h3.54v11.38h-3.54V49.71z M139.88,46.55c0,0.98-0.74,1.77-1.91,1.77
			c-1.12,0-1.86-0.79-1.84-1.77c-0.02-1.02,0.72-1.79,1.86-1.79C139.14,44.76,139.86,45.53,139.88,46.55"/>
		<path class="st0" d="M150.1,54.53c0-0.19-0.02-0.44-0.04-0.63c-0.21-0.95-0.98-1.75-2.07-1.75c-1.6,0-2.44,1.44-2.44,3.23
			c0,1.93,0.95,3.14,2.42,3.14c1.02,0,1.83-0.7,2.04-1.7c0.07-0.25,0.09-0.51,0.09-0.81V54.53z M153.63,44.58v13.12
			c0,1.28,0.05,2.63,0.09,3.4h-3.14l-0.16-1.68h-0.05c-0.72,1.28-2.1,1.93-3.56,1.93c-2.7,0-4.86-2.3-4.86-5.84
			c-0.02-3.84,2.37-6.05,5.1-6.05c1.39,0,2.49,0.49,3,1.28h0.04v-6.16H153.63z"/>
		<path class="st0" d="M164.82,52.37h1.4c1.77,0,2.81-0.88,2.81-2.26c0-1.44-0.98-2.16-2.61-2.19c-0.86,0-1.35,0.07-1.6,0.12V52.37z
			 M161.3,45.62c1.14-0.18,2.84-0.32,4.72-0.32c2.32,0,3.96,0.35,5.07,1.23c0.93,0.74,1.44,1.84,1.44,3.28c0,2-1.42,3.37-2.77,3.86
			v0.07c1.09,0.44,1.7,1.49,2.1,2.93c0.48,1.77,0.97,3.82,1.28,4.42h-3.63c-0.26-0.44-0.63-1.72-1.09-3.65
			c-0.42-1.95-1.09-2.49-2.54-2.51h-1.07v6.16h-3.52V45.62z"/>
		<path class="st0" d="M181.88,54.11c0-0.86-0.37-2.3-2-2.3c-1.49,0-2.1,1.35-2.19,2.3H181.88z M177.72,56.53
			c0.12,1.47,1.56,2.17,3.21,2.17c1.21,0,2.19-0.16,3.14-0.46l0.46,2.39c-1.16,0.47-2.58,0.7-4.12,0.7c-3.86,0-6.07-2.23-6.07-5.79
			c0-2.88,1.79-6.07,5.75-6.07c3.68,0,5.07,2.86,5.07,5.68c0,0.6-0.07,1.14-0.11,1.39H177.72z"/>
		<path class="st0" d="M187.26,57.99c0.65,0.4,2,0.86,3.05,0.86c1.07,0,1.51-0.38,1.51-0.95c0-0.58-0.35-0.86-1.68-1.3
			c-2.35-0.79-3.25-2.07-3.23-3.42c0-2.12,1.81-3.72,4.63-3.72c1.33,0,2.51,0.31,3.21,0.65l-0.63,2.44
			c-0.51-0.28-1.49-0.65-2.47-0.65c-0.86,0-1.35,0.35-1.35,0.93c0,0.54,0.44,0.82,1.84,1.31c2.16,0.74,3.07,1.84,3.09,3.51
			c0,2.12-1.67,3.67-4.93,3.67c-1.49,0-2.81-0.33-3.67-0.79L187.26,57.99z"/>
		<path class="st0" d="M200.93,56.2c0,0.28,0.02,0.54,0.07,0.75c0.23,0.95,1.05,1.67,2.07,1.67c1.54,0,2.44-1.28,2.44-3.21
			c0-1.81-0.81-3.19-2.39-3.19c-1,0-1.88,0.75-2.12,1.79c-0.05,0.19-0.07,0.42-0.07,0.63V56.2z M197.4,53.53
			c0-1.49-0.05-2.77-0.09-3.81h3.07l0.16,1.58h0.05c0.84-1.21,2.14-1.84,3.79-1.84c2.49,0,4.72,2.17,4.72,5.8
			c0,4.14-2.63,6.09-5.17,6.09c-1.37,0-2.44-0.56-2.95-1.3h-0.05v5.65h-3.54V53.53z"/>
		<path class="st0" d="M214.39,55.39c0,1.95,0.81,3.42,2.32,3.42c1.37,0,2.26-1.37,2.26-3.42c0-1.7-0.65-3.42-2.26-3.42
			C215.02,51.97,214.39,53.72,214.39,55.39 M222.62,55.27c0,4.16-2.95,6.07-6,6.07c-3.32,0-5.89-2.19-5.89-5.86
			c0-3.68,2.42-6.03,6.07-6.03C220.3,49.46,222.62,51.86,222.62,55.27"/>
		<path class="st0" d="M224.83,53.34c0-1.42-0.05-2.63-0.09-3.63h3.07l0.16,1.56h0.07c0.47-0.72,1.63-1.82,3.51-1.82
			c2.33,0,4.07,1.54,4.07,4.89v6.75h-3.54v-6.31c0-1.46-0.51-2.46-1.79-2.46c-0.97,0-1.56,0.67-1.79,1.33
			c-0.09,0.21-0.14,0.56-0.14,0.88v6.56h-3.54V53.34z"/>
		<path class="st0" d="M238.45,57.99c0.65,0.4,2,0.86,3.05,0.86c1.07,0,1.51-0.38,1.51-0.95c0-0.58-0.35-0.86-1.68-1.3
			c-2.35-0.79-3.25-2.07-3.23-3.42c0-2.12,1.81-3.72,4.63-3.72c1.33,0,2.51,0.31,3.21,0.65l-0.63,2.44
			c-0.51-0.28-1.49-0.65-2.47-0.65c-0.86,0-1.35,0.35-1.35,0.93c0,0.54,0.44,0.82,1.84,1.31c2.16,0.74,3.07,1.84,3.09,3.51
			c0,2.12-1.67,3.67-4.93,3.67c-1.49,0-2.81-0.33-3.67-0.79L238.45,57.99z"/>
		<path class="st0" d="M255.46,54.11c0-0.86-0.37-2.3-2-2.3c-1.49,0-2.1,1.35-2.19,2.3H255.46z M251.3,56.53
			c0.12,1.47,1.56,2.17,3.21,2.17c1.21,0,2.19-0.16,3.14-0.46l0.47,2.39c-1.16,0.47-2.58,0.7-4.12,0.7c-3.86,0-6.07-2.23-6.07-5.79
			c0-2.88,1.79-6.07,5.75-6.07c3.67,0,5.07,2.86,5.07,5.68c0,0.6-0.07,1.14-0.11,1.39L251.3,56.53z"/>
	</g>
	<path class="st0" d="M76.05,27.44l-28.83,0L38.31,0.02L29.4,27.44l-28.83,0l23.33,16.95l-8.91,27.42l23.33-16.95l23.33,16.95
		l-8.91-27.42L76.05,27.44z M23.13,60.6l4.84-14.89l0.96-2.96l-2.52-1.83l-12.67-9.2l49.13,0L23.13,60.6z"/>
</g>
</svg>
