<?xml version="1.0" encoding="utf-8"?>
<!-- Generator: Adobe Illustrator 25.2.1, SVG Export Plug-In . SVG Version: 6.00 Build 0)  -->
<svg version="1.1" id="Layer_1" xmlns="http://www.w3.org/2000/svg" xmlns:xlink="http://www.w3.org/1999/xlink" x="0px" y="0px"
	 viewBox="0 0 500 421.6" style="enable-background:new 0 0 500 421.6;" xml:space="preserve">
<style type="text/css">
	.st0{fill:#FFFFFF;}
	.st1{fill:#6B1D35;}
</style>
<g>
	<path class="st0" d="M464.8,76.1c-1.4-0.1-2.8-0.2-4.1-0.2c-140.4,0-280.9,0-421.3,0c-7.1,0-13.7,1.6-19.4,6
		c-7.7,5.9-11.9,13.8-11.9,23.6c0,69.6,0,139.2,0,208.8c0,16.5,13.2,29.5,29.9,29.5c70,0,140,0,210,0c0.8,0,1.6,0,2.4,0
		c2.6,0.2,4.4,2.1,4.6,4.7c0,0.6,0,1.3,0,2c0,17.8,0,35.5,0,53.3c0,0.8,0,1.6,0,2.9c1.4-1.3,2.5-2.2,3.5-3.1
		c21.6-19.1,43.2-38.3,64.7-57.5c1.9-1.7,3.8-2.3,6.3-2.3c44.2,0.1,88.5,0,132.7,0c13.1,0,24.4-8.3,28.3-20.7
		c0.9-2.9,1.3-5.8,1.3-8.8c0-69.6,0-139.2,0-208.8C491.9,90,480.2,77.4,464.8,76.1z"/>
	<path class="st1" d="M499.4,107.6c0-13.8-5.7-24.8-16.9-32.9c-5.7-4.1-12.2-6.4-19.2-6.8c-0.4,0-0.9,0.1-1.1-0.4
		c-141.9,0-283.9,0-425.8,0c-0.2,0.7-0.8,0.4-1.3,0.4C17.7,70,3.5,83.7,1,101.1c-0.3,2.4-0.4,4.7-0.4,7.1c0,22.2,0,44.4,0,66.7
		c0,0.9,0,1.7,0,2.6c0,3.4,0,6.7,0,10.1c0,0.9,0,1.7,0,2.6c0,40.5,0,80.9,0,121.4c0,1.1,0,2.2,0,3.2c0.2,7,2.1,13.6,5.9,19.5
		c7.9,12.1,19.2,18.4,33.8,18.5c15.9,0.1,31.9,0,47.8,0c0.9,0,1.7,0.1,2.6,0.1c3.3-0.2,6.6-0.2,9.9,0c0.8,0,1.6-0.1,2.4-0.1
		c46.5,0,92.9,0,139.4,0c0.2,0,0.4,0,0.6,0c2.3,0,2.1-0.2,2.1,2.1c0,19.8,0,39.6,0,59.4c0,0.7,0,1.4,0,2.1c0.2,1.9,1.1,3.4,3,4.2
		c1.8,0.8,3.5,0.6,5.1-0.7c0.6-0.5,1.2-1,1.8-1.5c24.1-21.4,48.2-42.8,72.3-64.2c1.1-1,2.3-1.5,3.8-1.5c42.7,0,85.3,0,128,0
		c6.8,0,13.3-1.1,19.3-4.4c13.7-7.6,20.9-19.3,21.1-35c0.2-8.5,0-16.9,0-25.4C499.4,227.7,499.5,167.7,499.4,107.6z M488.2,322.2
		c-3.9,12.3-15.1,20.5-28.1,20.5c-43.8,0-87.6,0-131.4,0c-2.5,0-4.4,0.7-6.2,2.3c-21.3,19-42.7,38-64.1,56.9c-1,0.9-2,1.8-3.4,3
		c0-1.3,0-2.1,0-2.9c0-17.6,0-35.2,0-52.8c0-0.6,0-1.3,0-1.9c-0.2-2.5-2-4.4-4.5-4.6c-0.8-0.1-1.6,0-2.4,0c-69.3,0-138.6,0-207.9,0
		c-16.5,0-29.6-12.9-29.6-29.2c0-68.9,0-137.8,0-206.7c0-9.7,4.1-17.5,11.8-23.3c5.6-4.3,12.1-5.9,19.2-5.9c139,0,278.1,0,417.2,0
		c1.4,0,2.7,0.1,4.1,0.2c15.2,1.3,26.8,13.8,26.9,29c0,68.9,0,137.8,0,206.7C489.5,316.5,489.1,319.4,488.2,322.2z"/>
</g>
</svg>
